<svg xmlns="http://www.w3.org/2000/svg" viewBox="0 0 800 800" width="800" height="800"><g transform="translate(156.0 380.0) rotate(0.0 52.0 66.0) scale(0.9990393852065322 0.9964144178146821)"><svg width="104.1" height="132.475" viewBox="0 0 104.1 132.475"><path d="M98.8 0h.3c.8 0 1.6.3 2.4.7 1.6.9 2.6 2.6 2.6 4.4v41.4c0 3.4-.9 6.8-2.6 9.8-5 8.6-15.8 27.4-20.8 36-1.7 3-4.2 5.4-7.2 7.2-14 8.1-55.7 32.2-55.7 32.2-.3.2-.7.4-1.1.5v.2H5v-14.3h5.1V53.5c0-1.8 1-3.5 2.6-4.4l76-43.9V.1h10.1z" fill="#142664"/><path d="M70.6 92.4c-1.7 3-4.2 5.4-7.2 7.2-14 8.1-55.7 32.2-55.7 32.2-1.6.9-3.5.9-5.1 0-1.6-.9-2.6-2.6-2.6-4.4V53.6c0-1.8 1-3.5 2.6-4.4 12.1-7 64-36.9 83.7-48.3 1.6-.9 3.5-.9 5.1 0S94 3.5 94 5.3v41.4c0 3.4-.9 6.8-2.6 9.8-5 8.5-15.8 27.2-20.8 35.9z" fill="#ff2e93"/><path d="M69.4 86.2c4.2-7.3 13.3-23.1 17.5-30.4 1.6-2.8 2.5-6.1 2.5-9.4V16.9c0-2.3-1.2-4.5-3.3-5.6-2-1.2-4.5-1.2-6.5 0C63 20.9 19.2 46.1 9 52c-2 1.2-3.3 3.3-3.3 5.6v56.8c0 2.3 1.2 4.5 3.3 5.6 2 1.2 4.5 1.2 6.5 0 0 0 35.1-20.3 47-27.1 2.9-1.5 5.2-3.8 6.9-6.7zM65.6 84c-1.3 2.2-3.1 4-5.2 5.2-11.8 6.8-47 27.1-47 27.1-.6.4-1.4.4-2.1 0-.6-.4-1-1.1-1-1.8V57.7c0-.7.4-1.4 1-1.8C21.5 50 65.2 24.8 81.9 15.2c.6-.4 1.4-.4 2.1 0 .6.4 1 1.1 1 1.8v29.5c0 2.5-.7 5-1.9 7.1C78.9 61 69.8 76.7 65.6 84z" fill="#142664"/></svg></g><g transform="translate(630.0 668.0) rotate(0.0 50.5 33.0) scale(1.001984126984127 1.0)"><svg width="100.8" height="66" viewBox="0 0 100.8 66"><path d="M91.7 0c5 0 9.1 4.1 9.1 9.1v28.2c0 3.2-1.7 6.2-4.5 7.9-8.1 4.7-25 14.4-32.4 18.7-2.4 1.4-5 2.1-7.8 2.1h-47c-5 0-9.1-4.1-9.1-9.1V28.8c0-3.2 1.7-6.2 4.5-7.9 8.8-5.1 27.7-16 33.9-19.6C39.7.5 41.3.1 42.8.1 50.9 0 77.5 0 91.7 0z" fill="#142664"/><path d="m37.3 41 .8-32.4c0-1.4 1.1-2.4 2.4-2.4 1.4 0 2.4 1.1 2.4 2.4l.7 30h7.1c3.1 0 6.6 0 10.2.1 14.2.3 30.7.7 30.7.7 1.4 0 2.4 1.1 2.4 2.4s-1.1 2.4-2.4 2.4c0 0-16.4.5-30.7.7-3.7.1-7.2.1-10.2.1-5.8 0-9.9-.1-10.2-.1-1.3.9-3.3 2.2-5.6 3.8-2.2 1.5-4.8 3.1-7.4 4.7-1.5.9-3.1 1.7-4.6 2.5C17 59 12 61.4 12 61.4c-1.2.7-2.7.3-3.3-.9s-.3-2.7.9-3.3c0 0 4.6-3.2 10.2-6.8 1.4-.9 2.9-1.9 4.5-2.8 2.6-1.5 5.3-2.9 7.7-4.2 2-.8 3.9-1.7 5.3-2.4z" fill="#fff"/></svg></g><g transform="translate(491.0 552.0) rotate(0.0 75.0 95.0) scale(0.9960159362549801 0.9991743664445695)"><svg width="150.6" height="190.157" viewBox="0 0 150.6 190.157"><path d="m18.3 189.082-8 .1-1.1-19.4h7.3v-92.3c0-2.6 1.4-5 3.6-6.3l108.5-62.7v-7.4h15c1.2 0 2.4.4 3.4 1 2.3 1.3 3.6 3.7 3.6 6.3v59.2c0 4.9-1.3 9.7-3.7 14-7.1 12.3-22.6 39.1-29.7 51.4-2.5 4.3-6 7.8-10.2 10.2l-71 41c-.1 0-.1.1-.2.1l-.7.4c-5.4 3-11.5 4.1-15.7 4.2z" fill="#142664"/><path d="M102.9 133.082c-2.5 4.3-6 7.8-10.2 10.2-20 11.6-79.6 45.9-79.6 45.9-2.3 1.3-5 1.3-7.3 0s-3.6-3.7-3.6-6.3v-105.4c0-2.6 1.4-5 3.6-6.3 17.3-10 91.4-52.8 119.6-69 2.3-1.3 5-1.3 7.3 0s3.6 3.7 3.6 6.3v59.2c0 4.9-1.3 9.7-3.7 14-7.1 12.4-22.5 39.1-29.7 51.4z" fill="#fff"/><g fill="#142664"><path d="M37 55.782c29.4-17 70.3-40.6 89.6-51.7 1.1-.6 1.4-2 .8-3s-2-1.4-3-.8c-19.3 11.2-60.2 34.8-89.6 51.7-1.1.6-1.4 2-.8 3 .6 1.1 1.9 1.4 3 .8zm-22.3 130.7c-3.2.2-5.6-.7-7.2-1.9-2.5-1.9-3.4-4.7-3.3-6 0-3.6.1-7.7.2-12.4 0-3.8.1-8 0-12.4 0-3.6-.1-7.3-.1-11.2-.1-8.3-.3-17.2-.5-26.1 0-.9-.7-1.6-1.6-1.6s-1.6.7-1.6 1.6c-.2 8.9-.3 17.7-.5 26.1-.1 3.8-.1 7.6-.1 11.2v12.4c0 4.7.1 8.9.2 12.4 0 1.9 1.3 6.2 5.2 8.9 2.2 1.5 5.3 2.6 9.6 2.2.9-.1 1.6-.8 1.5-1.7s-.9-1.6-1.8-1.5z"/><path d="M100.3 123.882c6-10.4 19-32.9 25-43.4 2.3-3.9 3.5-8.4 3.5-12.9v-42.2c0-3-1.6-5.7-4.2-7.2s-5.8-1.5-8.4 0c-23.8 13.7-86.2 49.8-100.8 58.2-2.6 1.5-4.2 4.3-4.2 7.2v81.1c0 3 1.6 5.7 4.2 7.2s5.8 1.5 8.4 0c0 0 50.2-29 67.1-38.7 3.9-2.1 7.2-5.4 9.4-9.3zm-3.8-2.2c-1.9 3.2-4.6 5.9-7.8 7.8-16.9 9.8-67.1 38.7-67.1 38.7-1.2.7-2.7.7-3.9 0s-2-2-2-3.4v-81.1c0-1.4.8-2.7 2-3.4 14.6-8.4 77-44.5 100.8-58.2 1.2-.7 2.7-.7 3.9 0s2 2 2 3.4v42.2c0 3.8-1 7.4-2.9 10.7-6 10.3-19 32.9-25 43.3z"/></g></svg></g><g transform="translate(197.0 550.0) rotate(0.0 61.5 88.0) scale(1.0049019607843137 1.0024377463376848)"><svg width="122.4" height="175.572" viewBox="0 0 122.4 175.572"><path d="M122.4 110.579c0 3.4-1.8 6.5-4.7 8.1-16.2 9.3-70 40.4-95.9 55.4-2.9 1.7-13 2.1-15.9.4s1.8-5.2 1.8-8.6v-101.1c0-3.4 1.8-6.5 4.7-8.1 16.2-9.3 62.6-40.6 88.5-55.5 2.9-1.7 13.9-1.5 16.8.2s4.7 4.8 4.7 8.1z" fill="#00e6b3"/><path d="M114.7 110.579c0 3.4-1.8 6.5-4.7 8.1-16.2 9.3-70 40.4-95.9 55.4-2.9 1.7-6.5 1.7-9.4 0s-4.7-4.8-4.7-8.1v-101.1c0-3.4 1.8-6.5 4.7-8.1 16.2-9.3 70-40.4 95.9-55.4 2.9-1.7 6.5-1.7 9.4 0s4.7 4.8 4.7 8.1z" fill="#142664"/><path d="m39.4 89.079-34.3-23.4c-1.1-.7-1.4-2.3-.7-3.4s2.3-1.4 3.4-.7l51.6 33.4c1.6-3.3 4.3-8.7 7.7-15.4 2.8-5.6 6-11.9 9.4-18.6 13.2-25.8 28.7-55.5 28.7-55.5.6-1.2 2.1-1.7 3.3-1.1s1.7 2.1 1.1 3.3c0 0-14.6 30.2-27.3 56.2-1.1 2.2-2.2 4.5-3.3 6.6 2.1 2.3 5.9 6.5 10.1 11.3 1.6 1.8 3.3 3.7 4.9 5.7 2.8 3.4 5.4 6.8 7.8 9.8 4.4 5.7 7.5 10 7.5 10 .9 1 .7 2.6-.3 3.4-1 .9-2.6.7-3.4-.3 0 0-3.6-3.9-8.4-9.3-2.5-2.9-5.4-6.1-8.2-9.5-1.6-2-3.2-4-4.7-5.9-3.1-3.9-5.8-7.6-7.8-10.1-1.2 2.4-2.3 4.7-3.4 6.9-5.5 11-9.4 18.6-9.4 18.6-.4.8-1.2 1.4-2.1 1.7-.9.2-1.8.1-2.6-.4l-15.2-10.4c-1.9 4.8-5.6 14.4-10 25.1-1.6 3.9-3.3 8-5 12.1-3 7-6.1 13.9-8.8 20-5.1 11.5-9.1 19.9-9.1 19.9-.5 1.2-2 1.8-3.2 1.3s-1.8-2-1.3-3.2c0 0 3.3-8.7 8-20.3 2.5-6.2 5.3-13.2 8.3-20.2 1.7-4.1 3.5-8.1 5.2-12 5-11.4 9.5-21.3 11.5-25.6z" fill="#00e6b3"/></svg></g><g transform="translate(81.0 530.0) rotate(0.0 80.5 66.0) scale(1.0031152647975077 1.0015174506828528)"><svg width="160.5" height="131.8" viewBox="0 0 160.5 131.8"><path d="M151.4.1c5 0 9.1 4.1 9.1 9.1v70.6c0 3.2-1.7 6.2-4.5 7.9-14.5 8.4-59.7 34.4-72.9 42-2.4 1.4-5 2.1-7.8 2.1H9.2c-2.4 0-4.7-1-6.4-2.7s-2.7-4-2.7-6.4V52.1c0-3.2 1.7-6.2 4.5-7.9C19.8 35.4 68.5 7.3 79 1.2 80.3.4 81.9 0 83.4 0c10.1.1 49.9.1 68 .1z" fill="#00e6b3"/><g fill="#142664"><path d="M77.8 83.4c0-3.2.1-20 .3-36.9.2-18.7.6-37.4.6-37.4 0-1.4 1.1-2.4 2.4-2.4 1.4 0 2.4 1.1 2.4 2.4 0 0 .4 18.7.6 37.4.2 14 .2 27.9.3 34.1 3.8 0 10.4.1 18.1.1 21 .2 49.9.7 49.9.7 1.4 0 2.4 1.1 2.4 2.4s-1.1 2.4-2.4 2.4c0 0-28.9.5-49.9.7-11.1.1-19.9.1-21.2.1-2.9 1.8-9 5.6-16.4 10.1-5.6 3.4-12 7.3-18.4 11.1-3.8 2.2-7.6 4.3-11.2 6.4-14.3 8-26.4 14.6-26.4 14.6-1.2.7-2.7.3-3.3-.9-.7-1.2-.3-2.7.9-3.3 0 0 11.6-7.3 25.6-15.8 3.6-2.2 7.3-4.4 11.1-6.6 6.5-3.8 13-7.4 18.7-10.6 6.8-3.7 12.6-6.8 15.9-8.6z"/><path d="M.1 66 77 21.1c1.3-.7 2.7-1.1 4.1-1.1h79.4v16.4H83.3L0 85V66z"/></g></svg></g><g transform="translate(126.0 261.0) rotate(0.0 44.5 62.0) scale(0.9933035714285715 0.9955841027699719)"><svg width="89.6" height="124.55" viewBox="0 0 89.6 124.55"><path d="M89.6 77.575c0 3.4-1.8 6.5-4.7 8.1-12.3 7.1-45.9 26.5-65.2 37.6-2.9 1.7-6.5 1.7-9.4 0s-4.7-4.8-4.7-8.1v-68.2c0-3.4 1.8-6.5 4.7-8.1 12.3-7.1 45.9-26.5 65.2-37.6 2.9-1.7 6.5-1.7 9.4 0s4.7 4.8 4.7 8.1z" fill="#00e6b3"/><path d="M84 77.575c0 3.4-1.8 6.5-4.7 8.1-12.3 7.1-45.9 26.5-65.2 37.6-2.9 1.7-6.5 1.7-9.4 0s-4.7-4.8-4.7-8.1v-68.2c0-3.4 1.8-6.5 4.7-8.1 12.3-7.1 45.9-26.5 65.2-37.6 2.9-1.7 6.5-1.7 9.4 0s4.7 4.8 4.7 8.1z" fill="#142664"/><path d="M43.1 66.375c1.2-2.4 3-6.1 5.2-10.4 2-4.1 4.4-8.7 6.9-13.6 9.7-18.9 21.2-40.6 21.2-40.6.6-1.2 2.1-1.7 3.3-1.1s1.7 2.1 1.1 3.3c0 0-10.5 22.2-19.8 41.3-2.4 4.9-4.7 9.6-6.7 13.7-4 8-6.9 13.6-6.9 13.6-.4.8-1.2 1.4-2.1 1.7-.9.2-1.8.1-2.6-.4l-39.3-27.1c-1.1-.7-1.4-2.3-.7-3.4s2.3-1.4 3.4-.7z" fill="#00e6b3"/></svg></g><g transform="translate(157.0 157.0) rotate(0.0 61.5 73.0) scale(1.0073710073710074 1.0005139626520472)"><svg width="122.1" height="145.925" viewBox="0 0 122.1 145.925"><path d="M115.6.1h.7c.9.1 1.8.3 2.7.8 1.9 1.1 3.1 3.1 3.1 5.3v75.9c0 2.2-1.2 4.2-3.1 5.3-14.5 8.4-76.4 44.1-100 57.7-1 .6-2.1.8-3.2.8H8.2l2.3-3.3c-.4-.8-.7-1.8-.7-2.8V63.9c0-2.2 1.2-4.2 3.1-5.3L105 5.4l3.7-5.4z" fill="#142664"/><path d="M114.4 82.1c0 2.2-1.2 4.2-3.1 5.3-14.5 8.4-76.4 44.1-100 57.7-1.9 1.1-4.2 1.1-6.1 0s-3.1-3.1-3.1-5.3V63.9c0-2.2 1.2-4.2 3.1-5.3 14.5-8.4 76.4-44.1 100-57.7 1.9-1.1 4.2-1.1 6.1 0s3.1 3.1 3.1 5.3z" fill="#fff"/><g fill="#142664"><path d="m3.9 120.3.5-56.4c0-.7.2-1.4.5-2s.8-1.1 1.4-1.4c5.1-3 16.1-9.3 29.2-16.9 13.7-8 29.6-17.4 43.6-25.7.8-.5 1-1.4.6-2.2-.5-.8-1.4-1-2.2-.6-14.2 8-30.3 17.1-44.1 24.9C20.2 47.5 9.2 53.9 4.1 56.8c-1.3.7-2.3 1.8-3 3S0 62.5 0 63.9l.5 56.4c0 .9.7 1.6 1.6 1.6 1 .1 1.8-.7 1.8-1.6z"/><path d="m17.7 74.1-9.4-9.5c-1-.9-1-2.5 0-3.5.9-1 2.5-1 3.5 0L31 79.2c4.2-2.5 15-9 25.8-15.3C68.7 57 80.7 50.2 83.9 48.4l20.5-42.1c.6-1.2 2-1.8 3.3-1.2s1.8 2 1.2 3.3L97.4 33.6c.6 2 1.8 6.1 3.1 11 1 3.8 2.2 8.1 3.3 12.4.6 2.5 1.1 5.1 1.7 7.5 2 9.6 3.5 17.7 3.5 17.7.3 1.3-.5 2.6-1.8 2.9s-2.6-.5-2.9-1.8c0 0-2.3-7.8-4.9-17.4-.6-2.4-1.3-4.9-1.9-7.5-1-4.4-1.9-8.7-2.7-12.6-.3-1.6-.6-3-.9-4.4l-4.7 10.4c-.3.6-.7 1.1-1.3 1.4 0 0-13.8 8.2-27.8 16.2s-28 15.8-28 15.8c-1.1.7-2.6.5-3.5-.4l-6.3-6.3c-.3 2.8-.8 6.7-1.4 11-.7 5-1.4 10.6-2.3 16.2-.5 3.3-1.1 6.5-1.7 9.7-2.3 12.3-4.4 22.5-4.4 22.5-.2 1.3-1.5 2.2-2.8 2s-2.2-1.5-2-2.8c0 0 1.2-10.3 2.9-22.7.4-3.2.9-6.4 1.4-9.7.9-5.6 2-11.2 2.9-16.1 1.1-6.6 2.2-12 2.8-14.5z"/></g></svg></g><g transform="translate(243.0 56.0) rotate(0.0 101.0 66.0) scale(1.0024813895781637 1.0015174506828528)"><svg width="201.5" height="131.8" viewBox="0 0 201.5 131.8"><path d="M192.4.1c5 0 9.1 4.1 9.1 9.1v70.6c0 3.2-1.7 6.2-4.5 7.9-14.5 8.4-59.7 34.4-72.9 42-2.4 1.4-5 2.1-7.8 2.1H9.1c-5 0-9.1-4.1-9.1-9.1V52.1c0-3.2 1.7-6.2 4.5-7.9 15.2-8.8 63.9-36.9 74.4-43C80.2.4 81.8 0 83.3 0h109.1z" fill="#ff2e93"/><g fill="#142664"><path d="m77.7 83.4.8-74.2c0-1.4 1.1-2.4 2.4-2.4 1.4 0 2.4 1.1 2.4 2.4l.8 71.5c6.6 0 22.5 0 40 .1 30.1.2 64.9.7 64.9.7 1.4 0 2.4 1.1 2.4 2.4 0 1.4-1.1 2.4-2.4 2.4 0 0-34.8.5-64.9.7-21.5.1-40.7.1-43 .1-2.9 1.8-9 5.6-16.5 10.2-5.6 3.4-12 7.3-18.4 11.1-3.8 2.2-7.6 4.3-11.2 6.4-14.3 8-26.4 14.6-26.4 14.6-1.2.7-2.7.3-3.3-.9-.7-1.2-.3-2.7.9-3.3 0 0 11.6-7.3 25.6-15.8 3.6-2.2 7.3-4.4 11.1-6.6 6.5-3.8 13-7.4 18.7-10.6 7-3.8 12.8-7 16.1-8.8z"/><path d="m24.6 131.8 89.9-52.5V.1h16.4V84c0 2.9-1.6 5.6-4.1 7.1l-69.6 40.7z"/></g></svg></g><g transform="translate(342.0 190.0) rotate(0.0 77.5 94.0) scale(0.9974259974259974 0.9954990733386285)"><svg width="155.4" height="188.85" viewBox="0 0 155.4 188.85"><path d="M147 0h.9c1.2.1 2.4.4 3.5 1 2.4 1.4 4 4 4 6.8v98.3c0 2.8-1.5 5.4-4 6.8-18.7 10.8-99 57.2-129.6 74.8-1.3.7-2.7 1.1-4.1 1.1H7.9l3-4.3c-.6-1.1-.9-2.3-.9-3.6V82.6c0-2.8 1.5-5.4 4-6.8L133.4 6.9l4.8-6.9z" fill="#142664"/><path d="M145.5 106.2c0 2.8-1.5 5.4-4 6.8-18.7 10.8-99 57.2-129.6 74.8-2.4 1.4-5.5 1.4-7.9 0s-4-4-4-6.8V82.7c0-2.8 1.5-5.4 4-6.8 18.7-10.8 99-57.2 129.6-74.8 2.4-1.4 5.5-1.4 7.9 0s4 4 4 6.8z" fill="#00e6b3"/><path d="M121.3 20.2c9.4-5.1 17.1-1.6 17.1 7.8s-7.7 21.3-17.1 26.4-17.1 1.6-17.1-7.8c.1-9.5 7.7-21.3 17.1-26.4z" fill="#fff"/><path d="M121.3 28.2c5-2.7 9.1-.9 9.1 4.1s-4.1 11.3-9.1 14-9.1.9-9.1-4.1c.1-5 4.1-11.3 9.1-14z" fill="#ff2e93"/><g fill="#142664"><path d="M17.9 139.1 37.1 128c1.6-.9 2.1-2.9 1.2-4.5s-2.9-2.1-4.5-1.2l-19.2 11.1c-1.6.9-2.1 2.9-1.2 4.5.8 1.6 2.9 2.1 4.5 1.2zm27.6-15.9 8.7-5c1.6-.9 2.1-2.9 1.2-4.5s-2.9-2.1-4.5-1.2l-8.7 5c-1.6.9-2.1 2.9-1.2 4.5.9 1.5 2.9 2.1 4.5 1.2zm-27.6 29.6 37-21.3c1.6-.9 2.1-2.9 1.2-4.5s-2.9-2.1-4.5-1.2l-37 21.3c-1.6.9-2.1 2.9-1.2 4.5.8 1.6 2.9 2.1 4.5 1.2zm0 13.2 25.4-14.7c1.6-.9 2.1-2.9 1.2-4.5s-2.9-2.1-4.5-1.2l-25.4 14.7c-1.6.9-2.1 2.9-1.2 4.5.8 1.5 2.9 2.1 4.5 1.2zM85.6 51c1.7-4.1 4.1-6.6 6.7-8 2.7-1.5 5.8-1.8 9-1.1 4.2.8 8-1.3 9.5-5.3.4-1.1 1.7-1.7 2.8-1.3s1.7 1.7 1.3 2.8c-2.3 6.1-8.1 9.4-14.5 8.1-2.1-.4-4.2-.3-6.1.7s-3.5 2.9-4.7 5.8c-.5 1.1-1.8 1.6-2.9 1.2-1.1-.5-1.6-1.8-1.1-2.9zm0 11.7c1.7-4.1 4.1-6.6 6.7-8 2.7-1.5 5.8-1.8 9-1.1 4.2.8 8-1.3 9.5-5.3.4-1.1 1.7-1.7 2.8-1.3s1.7 1.7 1.3 2.8c-2.3 6.1-8.1 9.4-14.5 8.1-2.1-.4-4.2-.3-6.1.7s-3.5 2.9-4.7 5.8c-.5 1.1-1.8 1.6-2.9 1.2-1.1-.5-1.6-1.8-1.1-2.9zm0 11.6c1.7-4.1 4.1-6.6 6.7-8 2.7-1.5 5.8-1.8 9-1.1 4.2.8 8-1.3 9.5-5.3.4-1.1 1.7-1.7 2.8-1.3s1.7 1.7 1.3 2.8c-2.3 6.1-8.1 9.4-14.5 8.1-2.1-.4-4.2-.3-6.1.7s-3.5 2.9-4.7 5.8c-.5 1.1-1.8 1.6-2.9 1.2s-1.6-1.7-1.1-2.9z"/></g></svg></g><g transform="translate(414.0 156.0) rotate(0.0 144.0 175.5) scale(0.9982668977469671 0.999288256227758)"><svg width="288.5" height="351.25" viewBox="0 0 288.5 351.25"><path d="M272.9.05h1.8c2.2.1 4.5.8 6.5 1.9 4.5 2.6 7.3 7.5 7.3 12.7v182.8c0 5.3-2.8 10.1-7.3 12.7-34.9 20.2-184.1 106.3-240.9 139.1-2.4 1.4-5 2-7.7 2H14.3l5.5-8c-1-2-1.6-4.3-1.6-6.7v-182.8c0-5.3 2.8-10.1 7.3-12.7l221.9-128.1 8.9-12.9z" fill="#ff2e93"/><path d="M270.2 197.45c0 5.3-2.8 10.1-7.3 12.7C228 230.35 78.8 316.45 22 349.25c-4.5 2.6-10.1 2.6-14.7 0-4.5-2.6-7.3-7.5-7.3-12.7v-182.8c0-5.3 2.8-10.1 7.3-12.7 34.8-20.1 184.1-106.3 240.9-139.1 4.5-2.6 10.1-2.6 14.7 0s7.3 7.5 7.3 12.7z" fill="#142664"/><path d="m79.6 199.75-63-45.9c-1.5-1-1.8-3.1-.7-4.6 1-1.5 3.1-1.8 4.6-.7l113.2 80c3.6-6.8 11.1-21.1 20.8-39.2 6.9-13 14.9-27.9 23.3-43.4 32.5-60.5 70.4-130 70.4-130 .8-1.6 2.8-2.2 4.4-1.3 1.6.8 2.2 2.8 1.3 4.4 0 0-31.7 60.6-61.8 117.9 4.5 3.4 13.6 10.4 24 18.4 3.7 2.9 7.6 5.9 11.4 9 6.5 5.3 12.9 10.8 18.5 15.6 10.6 9 18.3 15.8 18.3 15.8 1.4 1.1 1.6 3.2.5 4.6s-3.2 1.6-4.6.5c0 0-8.3-6.2-19.2-14.7-5.8-4.5-12.5-9.7-19-15-3.8-3.1-7.6-6.3-11.1-9.3-9.2-7.8-17.4-14.9-21.9-18.8-1.2 2.3-2.4 4.6-3.6 6.8-8.4 15.6-16.3 30.6-23.2 43.6-13.6 25.5-23.3 43.4-23.3 43.4-.6 1.1-1.6 1.9-2.8 2.2s-2.5 0-3.5-.7l-47.5-34.6c-3.8 7.7-12.7 25.9-23 46.6-3.5 7-7.1 14.3-10.9 21.6-6.4 12.4-13 24.8-18.8 35.6-10.9 20.4-19.1 35.5-19.1 35.5-.8 1.6-2.8 2.2-4.4 1.4s-2.2-2.8-1.4-4.4c0 0 7.5-15.4 17.7-36.2 5.5-11 11.7-23.5 18.1-36 3.7-7.3 7.5-14.5 11.2-21.4 11.4-21.3 21.4-39.8 25.1-46.7z" fill="#ff2e93"/></svg></g><g transform="translate(639.0 421.0) rotate(0.0 45.0 54.5) scale(1.0112359550561798 1.0083256244218317)"><svg width="89" height="108.1" viewBox="0 0 89 108.1"><path d="M84.2 0h.5c.7 0 1.4.2 2 .6 1.4.8 2.3 2.3 2.3 3.9v56.3c0 1.6-.9 3.1-2.3 3.9C76 70.9 30 97.4 12.5 107.5c-.7.4-1.6.6-2.4.6H4.5l1.7-2.5c-.3-.6-.5-1.3-.5-2.1V47.2c0-1.6.9-3.1 2.3-3.9L76.3 4 79 0z" fill="#142664"/><path d="M83.3 60.8c0 1.6-.9 3.1-2.3 3.9-10.7 6.2-56.7 32.7-74.2 42.8-1.4.8-3.1.8-4.5 0S0 105.2 0 103.6V47.3c0-1.6.9-3.1 2.3-3.9C13 37.2 59 10.7 76.5.6c1.4-.8 3.1-.8 4.5 0s2.3 2.3 2.3 3.9z" fill="#ff2e93"/><path d="M73.7 11.5c-.7-1.2-.3-2.8 1-3.5 1.2-.7 2.8-.3 3.6 1 .3.6.4 1.2.3 1.8 1.2.2 2.1 1.3 2.1 2.5 0 1.4-1.2 2.6-2.6 2.6 1.4 0 2.6 1.2 2.6 2.6 0 .9-.5 1.7-1.1 2.1.7.5 1.1 1.3 1.1 2.1 0 1.4-1.2 2.6-2.6 2.6-.6 0-1.2-.2-1.7-.6.5 1.2 0 2.6-1.1 3.2-1.2.7-2.8.3-3.5-1 .7 1.2.3 2.8-1 3.5-1.2.7-2.8.3-3.5-.9.7 1.2.3 2.8-1 3.5-1.1.6-2.4.4-3.2-.5-.1.8-.5 1.5-1.2 2-1.2.7-2.8.4-3.6-.9-.7-1.2-.4-2.8.9-3.6.3-.2.7-.3 1-.4-1.4-.1-2.4-1.2-2.4-2.6 0-1.4 1.2-2.6 2.6-2.6-1.4 0-2.6-1.2-2.6-2.6 0-1.4 1.2-2.6 2.6-2.6h.1l-.1-.1c-.7-1.2-.3-2.8 1-3.5 1.2-.7 2.8-.3 3.5.9-.7-1.2-.3-2.8 1-3.5 1.2-.7 2.8-.3 3.5.9-.7-1.2-.3-2.8 1-3.5 1-.6 2.6-.1 3.3 1.1z" fill="#fff"/><path d="M76.5 22c0 .3-.1.5-.4.6-1.8 1-9.9 5.9-12.8 7.6-.2.1-.5.1-.7 0s-.4-.4-.4-.6v-8.9c0-.3.1-.5.4-.6 1.8-1 9.9-5.9 12.8-7.6.2-.1.5-.1.7 0s.4.4.4.6z" fill="#00e6b3"/><g fill="#142664"><path d="m10.4 79.9 5.3-3.1c1.1-.6 1.4-2 .8-3-.6-1.1-2-1.4-3-.8l-5.3 3.1c-1.1.6-1.4 2-.8 3 .6 1.1 1.9 1.4 3 .8zm10.1-5.8L31.1 68c1.1-.6 1.4-2 .8-3-.6-1.1-2-1.4-3-.8l-10.6 6.1c-1.1.6-1.4 2-.8 3s2 1.4 3 .8zM10.4 87.7l15.6-9c1.1-.6 1.4-2 .8-3-.6-1.1-2-1.4-3-.8l-15.6 9c-1.1.6-1.4 2-.8 3 .6 1.1 1.9 1.4 3 .8zm20-11.5.8-.4c1.1-.6 1.4-2 .8-3-.6-1.1-2-1.4-3-.8l-.8.4c-1.1.6-1.4 2-.8 3s1.9 1.4 3 .8zm-20 19.1L25 86.9c1.1-.6 1.4-2 .8-3-.6-1.1-2-1.4-3-.8L8.2 91.5c-1.1.6-1.4 2-.8 3s1.9 1.4 3 .8zm41.8-64.8c.6-1.4 1.4-2.4 2.3-2.9s1.8-.5 2.8-.3c4.1.8 7.9-1.3 9.4-5.2.4-1.1-.1-2.4-1.3-2.8-1.1-.4-2.4.1-2.8 1.3-.7 1.9-2.4 2.8-4.4 2.5-2-.4-4-.2-5.8.8-1.7.9-3.2 2.5-4.3 5-.5 1.1.1 2.4 1.2 2.9s2.4-.1 2.9-1.3z"/><path d="M52.2 37.2c.6-1.4 1.4-2.4 2.3-2.9s1.8-.5 2.8-.3c4.1.8 7.9-1.3 9.4-5.2.4-1.1-.1-2.4-1.3-2.8-1.1-.4-2.4.1-2.8 1.3-.7 1.9-2.4 2.8-4.4 2.5-2-.4-4-.2-5.8.8-1.7.9-3.2 2.5-4.3 5-.5 1.1.1 2.4 1.2 2.9 1.1.4 2.4-.2 2.9-1.3z"/><path d="M52.2 43.9c.6-1.4 1.4-2.4 2.3-2.9s1.8-.5 2.8-.3c4.1.8 7.9-1.3 9.4-5.2.4-1.1-.1-2.4-1.3-2.8-1.1-.4-2.4.1-2.8 1.3-.7 1.9-2.4 2.8-4.4 2.5-2-.4-4-.2-5.8.8-1.7.9-3.2 2.5-4.3 5-.5 1.1.1 2.4 1.2 2.9s2.4-.2 2.9-1.3z"/></g></svg></g><g transform="translate(349.0 534.0) rotate(0.0 27.5 38.0) scale(1.0036496350364965 1.0160427807486632)"><svg width="54.8" height="74.8" viewBox="0 0 54.8 74.8"><path d="M51.9.1h.3c.4 0 .8.1 1.2.4.9.5 1.4 1.4 1.4 2.4v42.7c0 1-.5 1.9-1.4 2.4-6.6 3.8-35 20.2-45.8 26.4-.5.3-1 .4-1.5.4H2.6l1.1-1.5c-.2-.4-.3-.8-.3-1.3V29.3c0-1 .5-1.9 1.4-2.4L47 2.5 48.7 0h3.2z" fill="#142664"/><path d="M51.4 45.6c0 1-.5 1.9-1.4 2.4-6.6 3.8-35 20.2-45.8 26.4-.9.5-1.9.5-2.8 0S0 73 0 72V29.3c0-1 .5-1.9 1.4-2.4C8 23.1 36.4 6.7 47.2.5c.9-.5 1.9-.5 2.8 0s1.4 1.4 1.4 2.4z" fill="#00e6b3"/><path d="m8.4 38.1-4.8-5.4C3 32 3 31 3.7 30.4s1.7-.6 2.3.1l11.5 12.1c1.9-1.1 5.4-3.3 8.6-5.1 2.6-1.5 5-2.9 6.1-3.5.9-2 3.6-8 6.3-13.9l6.8-14.6c.4-.8 1.3-1.2 2.2-.8.8.4 1.2 1.3.8 2.2 0 0-3 7.4-6.1 14.8l-.3.7c.4 1 1 2.6 1.7 4.5.6 1.7 1.3 3.6 1.9 5.6.4 1.1.7 2.3.9 3.4 1.1 4.4 1.9 8.1 1.9 8.1.3.9-.2 1.8-1.1 2-.9.3-1.8-.2-2-1.1 0 0-1.4-3.5-2.9-7.8-.4-1.1-.8-2.2-1.1-3.4-.6-2-1.1-4-1.5-5.7 0-.1-.1-.2-.1-.4-2.1 4.9-3.7 8.8-3.7 8.8-.2.4-.5.8-.9 1 0 0-3.1 1.8-6.7 3.9C23.6 44 18.2 47 18.2 47c-.8.5-1.9.3-2.5-.4l-4.4-5c-.2 1.1-.4 2.4-.6 3.8-.4 2.2-.8 4.8-1.3 7.3-.3 1.5-.7 2.9-1 4.3C7 62.5 5.8 67.1 5.8 67.1c-.2.9-1.1 1.4-1.9 1.3-.9-.2-1.4-1.1-1.3-1.9 0 0 .7-4.7 1.7-10.3.2-1.4.5-2.9.8-4.4.5-2.5 1.2-5 1.7-7.2.7-3 1.3-5.3 1.6-6.5z" fill="#142664"/></svg></g><g transform="translate(409.0 564.0) rotate(0.0 57.5 70.0) scale(0.9991311902693311 0.9985734664764623)"><svg width="115.1" height="140.2" viewBox="0 0 115.1 140.2"><path d="M108.9 0h.7c.9.1 1.8.3 2.6.8 1.8 1 2.9 3 2.9 5.1v72.9c0 2.1-1.1 4-2.9 5.1-13.9 8-73.4 42.4-96.1 55.5-.9.5-2 .8-3.1.8H5.7l2.2-3.2c-.4-.8-.6-1.7-.6-2.7V61.4c0-2.1 1.1-4 2.9-5.1L98.7 5.2l3.5-5.1z" fill="#142664"/><path d="M107.8 78.8c0 2.1-1.1 4-2.9 5.1-13.9 8-73.4 42.4-96.1 55.5-1.8 1-4 1-5.9 0-1.8-1-2.9-3-2.9-5.1V61.4c0-2.1 1.1-4 2.9-5.1C16.8 48.3 76.3 13.9 99 .8c1.8-1 4-1 5.9 0 1.8 1 2.9 3 2.9 5.1z" fill="#ff2e93"/><path d="M52.2 73.7c1.6-2.6 4.2-6.6 7.3-11.5 2.8-4.3 6-9.2 9.4-14.3C82.1 28 97.5 5.3 97.5 5.3c1-1.5 3-2 4.5-1s2 3 1 4.5c0 0-14.3 23.5-26.9 43.7-3.2 5.2-6.4 10.2-9.1 14.5-5.4 8.5-9.4 14.3-9.4 14.3-1.1 1.7-3.3 2.4-5.2 1.7L6.2 63.3c-1.7-.7-2.5-2.6-1.8-4.2.7-1.7 2.6-2.5 4.2-1.8z" fill="#142664"/></svg></g><g transform="translate(175.0 422.0) rotate(0.0 23.0 26.0) scale(0.9881847475832439 0.9952153110047847)"><svg width="46.55" height="52.25" viewBox="0 0 46.55 52.25"><path d="M22.625 4.125c5.5-5.5 14.4-5.5 19.8 0 5.5 5.5 5.5 14.4 0 19.8l-25.4 25.4c-3.9 3.9-10.2 3.9-14.1 0s-3.9-10.2 0-14.1l25.4-25.4c2.4-2.4 6.2-2.4 8.6 0s2.4 6.2 0 8.6l-24.3 24.4c-.9.9-2.3.9-3.1 0-.9-.9-.9-2.3 0-3.1l24.3-24.3c.6-.6.6-1.7 0-2.4-.6-.6-1.7-.6-2.4 0l-25.4 25.4c-2.2 2.2-2.2 5.7 0 7.8 2.2 2.2 5.7 2.2 7.8 0l25.4-25.4c3.8-3.8 3.8-9.8 0-13.6s-9.8-3.8-13.6 0l-17.7 17.7c-.9.9-2.3.9-3.1 0-.9-.9-.9-2.3 0-3.1zm7.2 7.4h1.6zm0 0v-1.6z" fill="#142664"/></svg></g><g transform="translate(523.0 615.0) rotate(0.0 32.0 36.0) scale(0.9903288201160542 0.9886714727085478)"><svg width="64.625" height="72.825" viewBox="0 0 64.625 72.825"><path d="M32 5.625c7.5-7.5 19.6-7.5 27 0 7.5 7.5 7.5 19.6 0 27l-36.3 36.3c-5.2 5.2-13.6 5.2-18.8 0s-5.2-13.6 0-18.8l36.2-36.2c3-3 7.9-3 10.9 0s3 7.9 0 10.9l-34.7 34.7c-.9.9-2.3.9-3.1 0-.9-.9-.9-2.3 0-3.1l34.7-34.7c1.3-1.3 1.3-3.4 0-4.7s-3.4-1.3-4.7 0l-36.1 36.3c-3.5 3.5-3.5 9.1 0 12.5 3.5 3.5 9.1 3.5 12.5 0l36.3-36.3c5.7-5.7 5.7-15 0-20.8-5.7-5.7-15-5.7-20.8 0l-25.3 25.3c-.9.9-2.3.9-3.1 0-.9-.9-.9-2.3 0-3.1z" fill="#142664"/></svg></g><g transform="translate(117.0 106.0) rotate(0.0 41.5 44.0) scale(0.9951083828889316 0.9978908216723742)"><svg width="83.408" height="88.186" viewBox="0 0 83.408 88.186"><g fill="#ff2e93"><path d="m3.304 62.504 24-13.8c1.1-.6 1.4-2 .8-3-.6-1.1-2-1.4-3-.8l-24 13.8c-1.1.6-1.4 2-.8 3s1.9 1.4 3 .8zm31.7-18.4 47.3-27.3c1.1-.6 1.4-2 .8-3-.6-1.1-2-1.4-3-.8l-47.3 27.3c-1.1.6-1.4 2-.8 3 .6 1.1 2 1.4 3 .8zm45.1-43.8-32 18.5c-1.1.6-1.4 2-.8 3s2 1.4 3 .8l32-18.5c1.1-.6 1.4-2 .8-3-.6-1.1-1.9-1.4-3-.8zm-39.9 23-18.2 10.5c-1.1.6-1.4 2-.8 3 .6 1.1 2 1.4 3 .8l18.2-10.5c1.1-.6 1.4-2 .8-3s-1.9-1.4-3-.8zm-27.1 15.7-12 6.9c-1.1.6-1.4 2-.8 3 .6 1.1 2 1.4 3 .8l12-6.9c1.1-.6 1.4-2 .8-3-.6-1.1-2-1.4-3-.8zm-9.8 36.1 42.2-24.4c1.1-.6 1.4-2 .8-3-.6-1.1-2-1.4-3-.8l-42.2 24.4c-1.1.6-1.4 2-.8 3 .6 1.1 1.9 1.4 3 .8zm50.3-29 28.7-16.6c1.1-.6 1.4-2 .8-3-.6-1.1-2-1.4-3-.8l-28.7 16.6c-1.1.6-1.4 2-.8 3s2 1.4 3 .8zm-50.3 41.8 56.8-32.8c1.1-.6 1.4-2 .8-3-.6-1.1-2-1.4-3-.8l-56.8 32.8c-1.1.6-1.4 2-.8 3s1.9 1.4 3 .8z"/></g></svg></g><g transform="translate(399.0 65.0) rotate(0.0 19.0 14.5) scale(0.9819121447028423 0.9965635738831614)"><svg width="38.7" height="29.1" viewBox="0 0 38.7 29.1"><path d="M38.7 3.6c0-2-1.6-3.6-3.6-3.6H3.6C1.6 0 0 1.6 0 3.6v21.9c0 2 1.6 3.6 3.6 3.6h31.5c2 0 3.6-1.6 3.6-3.6V3.6z" fill="#fff"/><g fill="#142664"><path d="M6.9 17h25.7c1.2 0 2.2-1 2.2-2.2s-1-2.2-2.2-2.2H6.9c-1.2 0-2.2 1-2.2 2.2S5.6 17 6.9 17zm0-7.7h25.7c1.2 0 2.2-1 2.2-2.2s-1-2.2-2.2-2.2H6.9c-1.2 0-2.2 1-2.2 2.2-.1 1.2.9 2.2 2.2 2.2zm0 15.4h18.2c1.2 0 2.2-1 2.2-2.2s-1-2.2-2.2-2.2H6.9c-1.2 0-2.2 1-2.2 2.2s.9 2.2 2.2 2.2z"/></g></svg></g><g transform="translate(203.0 582.0) rotate(0.0 16.0 10.5) scale(0.9815950920245399 1.0)"><svg width="32.6" height="21" viewBox="0 0 32.6 21"><path d="M32.6 3.7c0-1-.4-1.9-1.1-2.6S29.9 0 28.9 0H3.7c-1 0-1.9.4-2.6 1.1S0 2.7 0 3.7v13.6c0 1 .4 1.9 1.1 2.6S2.7 21 3.7 21h25.2c1 0 1.9-.4 2.6-1.1s1.1-1.6 1.1-2.6V3.7z" fill="#fff"/><g fill="#142664"><path d="M6.2 8.9h20.3c1.2 0 2.2-1 2.2-2.2s-1-2.2-2.2-2.2H6.2C5 4.5 4 5.5 4 6.7s1 2.2 2.2 2.2zm0 7.7h14.3c1.2 0 2.2-1 2.2-2.2s-1-2.2-2.2-2.2H6.2c-1.2 0-2.2 1-2.2 2.2s1 2.2 2.2 2.2z"/></g></svg></g><g transform="translate(529.0 494.0) rotate(0.0 36.0 38.0) scale(0.9987654149731582 0.9988303171286257)"><svg width="72.089" height="76.089" viewBox="0 0 72.089 76.089"><g fill="#142664"><path d="m4.944 43.944 23.3-13.5c1.6-.9 2.1-2.9 1.2-4.5s-2.9-2.1-4.5-1.2l-23.3 13.5c-1.6.9-2.1 2.9-1.2 4.5.8 1.6 2.9 2.1 4.5 1.2zm32.7-18.9 32.8-18.9c1.6-.9 2.1-2.9 1.2-4.5s-2.9-2.1-4.5-1.2l-32.8 18.9c-1.6.9-2.1 2.9-1.2 4.5s3 2.1 4.5 1.2zm-32.7 50.6 6.6-3.8c1.6-.9 2.1-2.9 1.2-4.5s-2.9-2.1-4.5-1.2l-6.6 3.8c-1.6.9-2.1 2.9-1.2 4.5.8 1.6 2.9 2.1 4.5 1.2zm15.3-8.9 33.8-19.5c1.6-.9 2.1-2.9 1.2-4.5s-2.9-2.1-4.5-1.2l-33.8 19.5c-1.6.9-2.1 2.9-1.2 4.5s2.9 2.1 4.5 1.2zm-15.3-6.9 65.5-37.8c1.6-.9 2.1-2.9 1.2-4.5s-2.9-2.1-4.5-1.2l-65.5 37.8c-1.6.9-2.1 2.9-1.2 4.5.8 1.5 2.9 2.1 4.5 1.2z"/></g></svg></g><g transform="translate(311.0 367.0) rotate(0.0 61.5 64.0) scale(0.9945823562707204 0.9947928810134453)"><svg width="123.67" height="128.67" viewBox="0 0 123.67 128.67"><g fill="#00e6b3"><path d="m6.585 74.585 34.8-20.1c2.1-1.2 2.8-3.9 1.6-6s-3.9-2.8-6-1.6l-34.8 20.1c-2.1 1.2-2.8 3.9-1.6 6 1.1 2.1 3.8 2.8 6 1.6zm46.2-26.7 68.7-39.7c2.1-1.2 2.8-3.9 1.6-6-1.2-2.1-3.9-2.8-6-1.6l-68.7 39.7c-2.1 1.2-2.8 3.9-1.6 6 1.1 2.1 3.8 2.8 6 1.6zm-46.2 44.2 54.2-31.3c2.1-1.2 2.8-3.9 1.6-6s-3.9-2.8-6-1.6l-54.2 31.3c-2.1 1.2-2.8 3.9-1.6 6 1.1 2.1 3.8 2.8 6 1.6zm66.8-38.6 1.2-.7c2.1-1.2 2.8-3.9 1.6-6s-3.9-2.8-6-1.6l-1.2.7c-2.1 1.2-2.8 3.9-1.6 6s3.9 2.8 6 1.6zm13.2-7.6 34.9-20.2c2.1-1.2 2.8-3.9 1.6-6s-3.9-2.8-6-1.6l-34.9 20.1c-2.1 1.2-2.8 3.9-1.6 6 1.2 2.2 3.9 2.9 6 1.7zm-80 63.7 25.4-14.6c2.1-1.2 2.8-3.9 1.6-6s-3.9-2.8-6-1.6l-25.4 14.6c-2.1 1.2-2.8 3.9-1.6 6 1.1 2.1 3.8 2.8 6 1.6zm36.9-21.4 78-45c2.1-1.2 2.8-3.9 1.6-6s-3.9-2.8-6-1.6l-78 45c-2.1 1.2-2.8 3.9-1.6 6s3.9 2.8 6 1.6zm-36.9 39.9 75.9-43.8c2.1-1.2 2.8-3.9 1.6-6s-3.9-2.8-6-1.6l-75.9 43.8c-2.1 1.2-2.8 3.9-1.6 6 1.1 2.1 3.8 2.8 6 1.6z"/></g></svg></g><g transform="translate(701.0 674.0) rotate(0.0 11.5 8.5) scale(0.9623430962343097 0.9826589595375722)"><svg width="23.9" height="17.3" viewBox="0 0 23.9 17.3"><path d="M23.9 3.6c0-2-1.6-3.6-3.6-3.6H3.6C1.6 0 0 1.6 0 3.6v10.1c0 2 1.6 3.6 3.6 3.6h16.7c2 0 3.6-1.6 3.6-3.6V3.6z" fill="#fff"/><g fill="#142664"><path d="M5.7 7.8h12.9c1.2 0 2.2-1 2.2-2.2s-1-2.2-2.2-2.2H5.7c-1.2 0-2.2 1-2.2 2.2 0 1.3 1 2.2 2.2 2.2zm0 6.7h9.1c1.2 0 2.2-1 2.2-2.2s-1-2.2-2.2-2.2H5.7c-1.2 0-2.2 1-2.2 2.2s1 2.2 2.2 2.2z"/></g></svg></g><g transform="translate(276.0 261.0) rotate(0.0 14.0 21.0) scale(0.9688581314878894 0.9824561403508771)"><svg width="28.9" height="42.75" viewBox="0 0 28.9 42.75"><path d="M28.9 26.225c0 .6-.3 1.1-.8 1.4-3.7 2.1-19.7 11.4-25.7 14.9-.5.3-1.1.3-1.6 0s-.8-.8-.8-1.4v-24.6c0-.6.3-1.1.8-1.4 3.7-2.1 19.7-11.4 25.7-14.9.5-.3 1.1-.3 1.6 0s.8.8.8 1.4z" fill="#00e6b3"/></svg></g><g transform="translate(162.0 78.0) rotate(0.0 13.0 13.0) scale(0.9885931558935361 0.9701492537313433)"><svg width="26.3" height="26.8" viewBox="0 0 26.3 26.8"><path d="M26.3 11.75c0 .3-.2.6-.4.8-2.1 1.2-21.3 12.2-24.6 14.1-.3.2-.6.2-.9 0s-.4-.4-.4-.8v-10.8c0-.3.2-.6.4-.8C2.5 13.05 21.7 2.05 25 .15c.3-.2.6-.2.9 0s.4.4.4.8z" fill="#00e6b3"/></svg></g><g transform="translate(217.0 136.0) rotate(0.0 5.0 7.0) scale(0.6711409395973155 0.7235142118863048)"><svg width="14.9" height="19.35" viewBox="0 0 14.9 19.35"><path d="M14.9 10.875c0 .3-.2.6-.4.7-1.9 1.1-10.1 5.9-13.3 7.7-.3.1-.6.1-.8 0-.3-.1-.4-.4-.4-.7v-10.1c0-.3.2-.6.4-.7 1.9-1.1 10.1-5.9 13.3-7.7.3-.1.6-.1.8 0 .3.1.4.4.4.7z" fill="#00e6b3"/></svg></g><g transform="translate(114.0 267.0) rotate(0.0 8.0 8.0) scale(0.6083650190114068 0.5970149253731343)"><svg width="26.3" height="26.8" viewBox="0 0 26.3 26.8"><path d="M26.3 11.75c0 .3-.2.6-.4.8-2.1 1.2-21.3 12.2-24.6 14.1-.3.2-.6.2-.9 0s-.4-.4-.4-.8v-10.8c0-.3.2-.6.4-.8C2.5 13.05 21.7 2.05 25 .15c.3-.2.6-.2.9 0s.4.4.4.8z" fill="#00e6b3"/></svg></g><g transform="translate(260.0 261.0) rotate(0.0 11.0 15.0) scale(1.4765100671140938 1.5503875968992247)"><svg width="14.9" height="19.35" viewBox="0 0 14.9 19.35"><path d="M14.9 10.875c0 .3-.2.6-.4.7-1.9 1.1-10.1 5.9-13.3 7.7-.3.1-.6.1-.8 0-.3-.1-.4-.4-.4-.7v-10.1c0-.3.2-.6.4-.7 1.9-1.1 10.1-5.9 13.3-7.7.3-.1.6-.1.8 0 .3.1.4.4.4.7z" fill="#142664"/></svg></g><g transform="translate(73.0 330.0) rotate(0.0 5.0 7.0) scale(0.6711409395973155 0.7235142118863048)"><svg width="14.9" height="19.35" viewBox="0 0 14.9 19.35"><path d="M14.9 10.875c0 .3-.2.6-.4.7-1.9 1.1-10.1 5.9-13.3 7.7-.3.1-.6.1-.8 0-.3-.1-.4-.4-.4-.7v-10.1c0-.3.2-.6.4-.7 1.9-1.1 10.1-5.9 13.3-7.7.3-.1.6-.1.8 0 .3.1.4.4.4.7z" fill="#00e6b3"/></svg></g><g transform="translate(275.0 260.0) rotate(0.0 14.5 21.5) scale(1.0034602076124568 1.0058479532163742)"><svg width="28.9" height="42.75" viewBox="0 0 28.9 42.75"><path d="M28.9 26.225c0 .6-.3 1.1-.8 1.4-3.7 2.1-19.7 11.4-25.7 14.9-.5.3-1.1.3-1.6 0s-.8-.8-.8-1.4v-24.6c0-.6.3-1.1.8-1.4 3.7-2.1 19.7-11.4 25.7-14.9.5-.3 1.1-.3 1.6 0s.8.8.8 1.4z" fill="#00e6b3"/></svg></g><g transform="translate(394.0 196.0) rotate(0.0 8.5 8.5) scale(0.6463878326996197 0.6343283582089552)"><svg width="26.3" height="26.8" viewBox="0 0 26.3 26.8"><path d="M26.3 11.75c0 .3-.2.6-.4.8-2.1 1.2-21.3 12.2-24.6 14.1-.3.2-.6.2-.9 0s-.4-.4-.4-.8v-10.8c0-.3.2-.6.4-.8C2.5 13.05 21.7 2.05 25 .15c.3-.2.6-.2.9 0s.4.4.4.8z" fill="#00e6b3"/></svg></g><g transform="translate(511.0 74.0) rotate(0.0 10.0 10.0) scale(0.7604562737642585 0.7462686567164178)"><svg width="26.3" height="26.8" viewBox="0 0 26.3 26.8"><path d="M26.3 11.75c0 .3-.2.6-.4.8-2.1 1.2-21.3 12.2-24.6 14.1-.3.2-.6.2-.9 0s-.4-.4-.4-.8v-10.8c0-.3.2-.6.4-.8C2.5 13.05 21.7 2.05 25 .15c.3-.2.6-.2.9 0s.4.4.4.8z" fill="#00e6b3"/></svg></g><g transform="translate(533.0 198.0) rotate(0.0 5.0 7.0) scale(0.6711409395973155 0.7235142118863048)"><svg width="14.9" height="19.35" viewBox="0 0 14.9 19.35"><path d="M14.9 10.875c0 .3-.2.6-.4.7-1.9 1.1-10.1 5.9-13.3 7.7-.3.1-.6.1-.8 0-.3-.1-.4-.4-.4-.7v-10.1c0-.3.2-.6.4-.7 1.9-1.1 10.1-5.9 13.3-7.7.3-.1.6-.1.8 0 .3.1.4.4.4.7z" fill="#00e6b3"/></svg></g><g transform="translate(116.0 441.0) rotate(0.0 7.5 10.0) scale(1.006711409395973 1.0335917312661498)"><svg width="14.9" height="19.35" viewBox="0 0 14.9 19.35"><path d="M14.9 10.875c0 .3-.2.6-.4.7-1.9 1.1-10.1 5.9-13.3 7.7-.3.1-.6.1-.8 0-.3-.1-.4-.4-.4-.7v-10.1c0-.3.2-.6.4-.7 1.9-1.1 10.1-5.9 13.3-7.7.3-.1.6-.1.8 0 .3.1.4.4.4.7z" fill="#00e6b3"/></svg></g><g transform="translate(452.0 548.0) rotate(0.0 4.5 6.5) scale(0.6040268456375839 0.6718346253229973)"><svg width="14.9" height="19.35" viewBox="0 0 14.9 19.35"><path d="M14.9 10.875c0 .3-.2.6-.4.7-1.9 1.1-10.1 5.9-13.3 7.7-.3.1-.6.1-.8 0-.3-.1-.4-.4-.4-.7v-10.1c0-.3.2-.6.4-.7 1.9-1.1 10.1-5.9 13.3-7.7.3-.1.6-.1.8 0 .3.1.4.4.4.7z" fill="#00e6b3"/></svg></g><g transform="translate(654.0 640.0) rotate(0.0 5.0 6.5) scale(0.6711409395973155 0.6718346253229973)"><svg width="14.9" height="19.35" viewBox="0 0 14.9 19.35"><path d="M14.9 10.875c0 .3-.2.6-.4.7-1.9 1.1-10.1 5.9-13.3 7.7-.3.1-.6.1-.8 0-.3-.1-.4-.4-.4-.7v-10.1c0-.3.2-.6.4-.7 1.9-1.1 10.1-5.9 13.3-7.7.3-.1.6-.1.8 0 .3.1.4.4.4.7z" fill="#00e6b3"/></svg></g><g transform="translate(644.0 115.0) rotate(0.0 5.0 8.0) scale(0.34602076124567477 0.3742690058479532)"><svg width="28.9" height="42.75" viewBox="0 0 28.9 42.75"><path d="M28.9 26.225c0 .6-.3 1.1-.8 1.4-3.7 2.1-19.7 11.4-25.7 14.9-.5.3-1.1.3-1.6 0s-.8-.8-.8-1.4v-24.6c0-.6.3-1.1.8-1.4 3.7-2.1 19.7-11.4 25.7-14.9.5-.3 1.1-.3 1.6 0s.8.8.8 1.4z" fill="#142664"/></svg></g><g transform="translate(342.0 202.0) rotate(0.0 5.5 8.0) scale(0.3806228373702422 0.3742690058479532)"><svg width="28.9" height="42.75" viewBox="0 0 28.9 42.75"><path d="M28.9 26.225c0 .6-.3 1.1-.8 1.4-3.7 2.1-19.7 11.4-25.7 14.9-.5.3-1.1.3-1.6 0s-.8-.8-.8-1.4v-24.6c0-.6.3-1.1.8-1.4 3.7-2.1 19.7-11.4 25.7-14.9.5-.3 1.1-.3 1.6 0s.8.8.8 1.4z" fill="#142664"/></svg></g><g transform="translate(107.0 208.0) rotate(0.0 12.5 18.5) scale(0.8650519031141869 0.8654970760233918)"><svg width="28.9" height="42.75" viewBox="0 0 28.9 42.75"><path d="M28.9 26.225c0 .6-.3 1.1-.8 1.4-3.7 2.1-19.7 11.4-25.7 14.9-.5.3-1.1.3-1.6 0s-.8-.8-.8-1.4v-24.6c0-.6.3-1.1.8-1.4 3.7-2.1 19.7-11.4 25.7-14.9.5-.3 1.1-.3 1.6 0s.8.8.8 1.4z" fill="#FF2E93"/></svg></g><g transform="translate(547.0 62.0) rotate(0.0 40.5 55.0) scale(1.0 0.9986382206082615)"><svg width="81" height="110.15" viewBox="0 0 81 110.15"><path d="M76.6.025h.5c.6 0 1.2.2 1.8.5 1.3.7 2.1 2.1 2.1 3.6v62.9c0 1.5-.8 2.8-2.1 3.6-9.8 5.6-51.6 29.8-67.5 39-.7.4-1.4.6-2.2.5H4.1l1.5-2.2c-.3-.6-.4-1.2-.4-1.9v-62.9c0-1.5.8-2.8 2.1-3.6l62.2-35.9 2.5-3.6z" fill="#142664"/><path d="M75.8 67.025c0 1.5-.8 2.8-2.1 3.6-9.8 5.6-51.6 29.8-67.5 39-1.3.7-2.8.7-4.1 0s-2.1-2.1-2.1-3.6v-62.9c0-1.5.8-2.8 2.1-3.6 9.8-5.6 51.6-29.8 67.5-39 1.3-.7 2.8-.7 4.1 0s2.1 2.1 2.1 3.6z" fill="#ff2e93"/><path d="m11.4 55.925-8.1-12.2c-.8-1.1-.5-2.6.6-3.4s2.6-.5 3.4.6l12.6 17.4c3.3-2 9.8-5.9 16.4-9.7 7.6-4.4 15.3-8.8 17.9-10.3l14-34.4c.5-1.3 1.9-1.9 3.2-1.4s1.9 1.9 1.4 3.2l-8.4 23.3c.5 1.6 1.4 4.5 2.4 8 .8 2.9 1.7 6.1 2.5 9.4.5 1.9.8 3.9 1.2 5.7 1.4 7.3 2.4 13.5 2.4 13.5.3 1.3-.5 2.6-1.8 2.9s-2.6-.5-2.9-1.8c0 0-1.8-5.9-3.8-13.1-.5-1.8-1-3.7-1.5-5.7-.7-3.2-1.4-6.4-1.9-9.3l-1.1 3.1c-.3.7-.8 1.3-1.4 1.6 0 0-9.3 5.5-18.8 10.9-9.4 5.4-19 10.6-19 10.6-1.3.8-3 .4-3.9-.9l-1.1-1.7c-.2 1.6-.5 3.4-.7 5.3-.5 3.7-1.2 7.9-1.9 12.1-.4 2.4-1 4.9-1.5 7.2-2 9.2-3.8 16.7-3.8 16.7-.2 1.3-1.5 2.2-2.8 2s-2.2-1.5-2-2.8c0 0 1-7.7 2.4-17 .4-2.4.7-4.8 1.2-7.2.8-4.2 1.7-8.3 2.5-12 .9-4.8 1.8-8.7 2.3-10.6z" fill="#142664"/></svg></g><g transform="translate(64.0 480.0) rotate(0.0 13.0 13.0) scale(0.9885931558935361 0.9701492537313433)"><svg width="26.3" height="26.8" viewBox="0 0 26.3 26.8"><path d="M26.3 11.75c0 .3-.2.6-.4.8-2.1 1.2-21.3 12.2-24.6 14.1-.3.2-.6.2-.9 0s-.4-.4-.4-.8v-10.8c0-.3.2-.6.4-.8C2.5 13.05 21.7 2.05 25 .15c.3-.2.6-.2.9 0s.4.4.4.8z" fill="#00e6b3"/></svg></g><g transform="translate(240.0 492.0) rotate(0.0 9.5 9.5) scale(0.7224334600760456 0.708955223880597)"><svg width="26.3" height="26.8" viewBox="0 0 26.3 26.8"><path d="M26.3 11.75c0 .3-.2.6-.4.8-2.1 1.2-21.3 12.2-24.6 14.1-.3.2-.6.2-.9 0s-.4-.4-.4-.8v-10.8c0-.3.2-.6.4-.8C2.5 13.05 21.7 2.05 25 .15c.3-.2.6-.2.9 0s.4.4.4.8z" fill="#00e6b3"/></svg></g><g transform="translate(362.0 640.0) rotate(0.0 8.0 8.0) scale(0.6083650190114068 0.5970149253731343)"><svg width="26.3" height="26.8" viewBox="0 0 26.3 26.8"><path d="M26.3 11.75c0 .3-.2.6-.4.8-2.1 1.2-21.3 12.2-24.6 14.1-.3.2-.6.2-.9 0s-.4-.4-.4-.8v-10.8c0-.3.2-.6.4-.8C2.5 13.05 21.7 2.05 25 .15c.3-.2.6-.2.9 0s.4.4.4.8z" fill="#00e6b3"/></svg></g><g transform="translate(283.0 516.0) rotate(0.0 8.0 8.0) scale(0.6083650190114068 0.5970149253731343)"><svg width="26.3" height="26.8" viewBox="0 0 26.3 26.8"><path d="M26.3 11.75c0 .3-.2.6-.4.8-2.1 1.2-21.3 12.2-24.6 14.1-.3.2-.6.2-.9 0s-.4-.4-.4-.8v-10.8c0-.3.2-.6.4-.8C2.5 13.05 21.7 2.05 25 .15c.3-.2.6-.2.9 0s.4.4.4.8z" fill="#FF2E93"/></svg></g><g transform="translate(333.0 705.0) rotate(0.0 7.5 10.0) scale(1.006711409395973 1.0335917312661498)"><svg width="14.9" height="19.35" viewBox="0 0 14.9 19.35"><path d="M14.9 10.875c0 .3-.2.6-.4.7-1.9 1.1-10.1 5.9-13.3 7.7-.3.1-.6.1-.8 0-.3-.1-.4-.4-.4-.7v-10.1c0-.3.2-.6.4-.7 1.9-1.1 10.1-5.9 13.3-7.7.3-.1.6-.1.8 0 .3.1.4.4.4.7z" fill="#00e6b3"/></svg></g><g transform="translate(84.0 682.0) rotate(0.0 8.0 8.0) scale(0.6083650190114068 0.5970149253731343)"><svg width="26.3" height="26.8" viewBox="0 0 26.3 26.8"><path d="M26.3 11.75c0 .3-.2.6-.4.8-2.1 1.2-21.3 12.2-24.6 14.1-.3.2-.6.2-.9 0s-.4-.4-.4-.8v-10.8c0-.3.2-.6.4-.8C2.5 13.05 21.7 2.05 25 .15c.3-.2.6-.2.9 0s.4.4.4.8z" fill="#00e6b3"/></svg></g><g transform="translate(513.0 141.0) rotate(0.0 8.5 11.5) scale(1.1409395973154361 1.1886304909560723)"><svg width="14.9" height="19.35" viewBox="0 0 14.9 19.35"><path d="M14.9 10.875c0 .3-.2.6-.4.7-1.9 1.1-10.1 5.9-13.3 7.7-.3.1-.6.1-.8 0-.3-.1-.4-.4-.4-.7v-10.1c0-.3.2-.6.4-.7 1.9-1.1 10.1-5.9 13.3-7.7.3-.1.6-.1.8 0 .3.1.4.4.4.7z" fill="#FF2E93"/></svg></g><g transform="translate(134.0 70.0) rotate(0.0 10.5 14.5) scale(1.4093959731543624 1.4987080103359172)"><svg width="14.9" height="19.35" viewBox="0 0 14.9 19.35"><path d="M14.9 10.875c0 .3-.2.6-.4.7-1.9 1.1-10.1 5.9-13.3 7.7-.3.1-.6.1-.8 0-.3-.1-.4-.4-.4-.7v-10.1c0-.3.2-.6.4-.7 1.9-1.1 10.1-5.9 13.3-7.7.3-.1.6-.1.8 0 .3.1.4.4.4.7z" fill="#142664"/></svg></g><g transform="translate(97.0 204.0) rotate(0.0 5.5 7.5) scale(0.7382550335570469 0.7751937984496123)"><svg width="14.9" height="19.35" viewBox="0 0 14.9 19.35"><path d="M14.9 10.875c0 .3-.2.6-.4.7-1.9 1.1-10.1 5.9-13.3 7.7-.3.1-.6.1-.8 0-.3-.1-.4-.4-.4-.7v-10.1c0-.3.2-.6.4-.7 1.9-1.1 10.1-5.9 13.3-7.7.3-.1.6-.1.8 0 .3.1.4.4.4.7z" fill="#142664"/></svg></g><g transform="translate(84.0 307.0) rotate(0.0 8.5 8.5) scale(0.6463878326996197 0.6343283582089552)"><svg width="26.3" height="26.8" viewBox="0 0 26.3 26.8"><path d="M26.3 11.75c0 .3-.2.6-.4.8-2.1 1.2-21.3 12.2-24.6 14.1-.3.2-.6.2-.9 0s-.4-.4-.4-.8v-10.8c0-.3.2-.6.4-.8C2.5 13.05 21.7 2.05 25 .15c.3-.2.6-.2.9 0s.4.4.4.8z" fill="#142664"/></svg></g><g transform="translate(486.0 62.0) rotate(0.0 13.0 13.0) scale(0.9885931558935361 0.9701492537313433)"><svg width="26.3" height="26.8" viewBox="0 0 26.3 26.8"><path d="M26.3 11.75c0 .3-.2.6-.4.8-2.1 1.2-21.3 12.2-24.6 14.1-.3.2-.6.2-.9 0s-.4-.4-.4-.8v-10.8c0-.3.2-.6.4-.8C2.5 13.05 21.7 2.05 25 .15c.3-.2.6-.2.9 0s.4.4.4.8z" fill="#142664"/></svg></g><g transform="translate(273.0 400.0) rotate(0.0 9.0 12.5) scale(1.2080536912751678 1.2919896640826873)"><svg width="14.9" height="19.35" viewBox="0 0 14.9 19.35"><path d="M14.9 10.875c0 .3-.2.6-.4.7-1.9 1.1-10.1 5.9-13.3 7.7-.3.1-.6.1-.8 0-.3-.1-.4-.4-.4-.7v-10.1c0-.3.2-.6.4-.7 1.9-1.1 10.1-5.9 13.3-7.7.3-.1.6-.1.8 0 .3.1.4.4.4.7z" fill="#142664"/></svg></g><g transform="translate(666.0 391.0) rotate(0.0 7.5 10.0) scale(1.006711409395973 1.0335917312661498)"><svg width="14.9" height="19.35" viewBox="0 0 14.9 19.35"><path d="M14.9 10.875c0 .3-.2.6-.4.7-1.9 1.1-10.1 5.9-13.3 7.7-.3.1-.6.1-.8 0-.3-.1-.4-.4-.4-.7v-10.1c0-.3.2-.6.4-.7 1.9-1.1 10.1-5.9 13.3-7.7.3-.1.6-.1.8 0 .3.1.4.4.4.7z" fill="#142664"/></svg></g><g transform="translate(90.0 499.0) rotate(0.0 10.0 14.0) scale(1.342281879194631 1.4470284237726097)"><svg width="14.9" height="19.35" viewBox="0 0 14.9 19.35"><path d="M14.9 10.875c0 .3-.2.6-.4.7-1.9 1.1-10.1 5.9-13.3 7.7-.3.1-.6.1-.8 0-.3-.1-.4-.4-.4-.7v-10.1c0-.3.2-.6.4-.7 1.9-1.1 10.1-5.9 13.3-7.7.3-.1.6-.1.8 0 .3.1.4.4.4.7z" fill="#142664"/></svg></g><g transform="translate(473.0 501.0) rotate(0.0 7.5 10.5) scale(1.006711409395973 1.0852713178294573)"><svg width="14.9" height="19.35" viewBox="0 0 14.9 19.35"><path d="M14.9 10.875c0 .3-.2.6-.4.7-1.9 1.1-10.1 5.9-13.3 7.7-.3.1-.6.1-.8 0-.3-.1-.4-.4-.4-.7v-10.1c0-.3.2-.6.4-.7 1.9-1.1 10.1-5.9 13.3-7.7.3-.1.6-.1.8 0 .3.1.4.4.4.7z" fill="#142664"/></svg></g><g transform="translate(380.0 616.0) rotate(0.0 5.5 8.0) scale(0.7382550335570469 0.8268733850129198)"><svg width="14.9" height="19.35" viewBox="0 0 14.9 19.35"><path d="M14.9 10.875c0 .3-.2.6-.4.7-1.9 1.1-10.1 5.9-13.3 7.7-.3.1-.6.1-.8 0-.3-.1-.4-.4-.4-.7v-10.1c0-.3.2-.6.4-.7 1.9-1.1 10.1-5.9 13.3-7.7.3-.1.6-.1.8 0 .3.1.4.4.4.7z" fill="#142664"/></svg></g><g transform="translate(702.0 568.0) rotate(0.0 7.0 9.5) scale(0.9395973154362416 0.9819121447028423)"><svg width="14.9" height="19.35" viewBox="0 0 14.9 19.35"><path d="M14.9 10.875c0 .3-.2.6-.4.7-1.9 1.1-10.1 5.9-13.3 7.7-.3.1-.6.1-.8 0-.3-.1-.4-.4-.4-.7v-10.1c0-.3.2-.6.4-.7 1.9-1.1 10.1-5.9 13.3-7.7.3-.1.6-.1.8 0 .3.1.4.4.4.7z" fill="#FF2E93"/></svg></g><g transform="translate(147.0 677.0) rotate(0.0 13.5 13.5) scale(1.026615969581749 1.007462686567164)"><svg width="26.3" height="26.8" viewBox="0 0 26.3 26.8"><path d="M26.3 11.75c0 .3-.2.6-.4.8-2.1 1.2-21.3 12.2-24.6 14.1-.3.2-.6.2-.9 0s-.4-.4-.4-.8v-10.8c0-.3.2-.6.4-.8C2.5 13.05 21.7 2.05 25 .15c.3-.2.6-.2.9 0s.4.4.4.8z" fill="#142664"/></svg></g><g transform="translate(400.0 720.0) rotate(0.0 10.0 14.0) scale(1.342281879194631 1.4470284237726097)"><svg width="14.9" height="19.35" viewBox="0 0 14.9 19.35"><path d="M14.9 10.875c0 .3-.2.6-.4.7-1.9 1.1-10.1 5.9-13.3 7.7-.3.1-.6.1-.8 0-.3-.1-.4-.4-.4-.7v-10.1c0-.3.2-.6.4-.7 1.9-1.1 10.1-5.9 13.3-7.7.3-.1.6-.1.8 0 .3.1.4.4.4.7z" fill="#142664"/></svg></g><g transform="translate(673.0 550.0) rotate(0.0 10.0 14.0) scale(1.342281879194631 1.4470284237726097)"><svg width="14.9" height="19.35" viewBox="0 0 14.9 19.35"><path d="M14.9 10.875c0 .3-.2.6-.4.7-1.9 1.1-10.1 5.9-13.3 7.7-.3.1-.6.1-.8 0-.3-.1-.4-.4-.4-.7v-10.1c0-.3.2-.6.4-.7 1.9-1.1 10.1-5.9 13.3-7.7.3-.1.6-.1.8 0 .3.1.4.4.4.7z" fill="#142664"/></svg></g><g transform="translate(304.0 321.0) rotate(0.0 10.0 10.0) scale(0.7604562737642585 0.7462686567164178)"><svg width="26.3" height="26.8" viewBox="0 0 26.3 26.8"><path d="M26.3 11.75c0 .3-.2.6-.4.8-2.1 1.2-21.3 12.2-24.6 14.1-.3.2-.6.2-.9 0s-.4-.4-.4-.8v-10.8c0-.3.2-.6.4-.8C2.5 13.05 21.7 2.05 25 .15c.3-.2.6-.2.9 0s.4.4.4.8z" fill="#FF2E93"/></svg></g><g transform="translate(89.0 429.0) rotate(0.0 9.0 12.5) scale(1.2080536912751678 1.2919896640826873)"><svg width="14.9" height="19.35" viewBox="0 0 14.9 19.35"><path d="M14.9 10.875c0 .3-.2.6-.4.7-1.9 1.1-10.1 5.9-13.3 7.7-.3.1-.6.1-.8 0-.3-.1-.4-.4-.4-.7v-10.1c0-.3.2-.6.4-.7 1.9-1.1 10.1-5.9 13.3-7.7.3-.1.6-.1.8 0 .3.1.4.4.4.7z" fill="#FF2E93"/></svg></g><g transform="translate(260.0 462.0) rotate(0.0 7.5 10.0) scale(1.006711409395973 1.0335917312661498)"><svg width="14.9" height="19.35" viewBox="0 0 14.9 19.35"><path d="M14.9 10.875c0 .3-.2.6-.4.7-1.9 1.1-10.1 5.9-13.3 7.7-.3.1-.6.1-.8 0-.3-.1-.4-.4-.4-.7v-10.1c0-.3.2-.6.4-.7 1.9-1.1 10.1-5.9 13.3-7.7.3-.1.6-.1.8 0 .3.1.4.4.4.7z" fill="#FF2E93"/></svg></g><g transform="translate(430.0 535.0) rotate(0.0 7.5 10.0) scale(1.006711409395973 1.0335917312661498)"><svg width="14.9" height="19.35" viewBox="0 0 14.9 19.35"><path d="M14.9 10.875c0 .3-.2.6-.4.7-1.9 1.1-10.1 5.9-13.3 7.7-.3.1-.6.1-.8 0-.3-.1-.4-.4-.4-.7v-10.1c0-.3.2-.6.4-.7 1.9-1.1 10.1-5.9 13.3-7.7.3-.1.6-.1.8 0 .3.1.4.4.4.7z" fill="#FF2E93"/></svg></g><g transform="translate(595.0 449.0) rotate(0.0 12.5 17.0) scale(1.6778523489932886 1.7571059431524547)"><svg width="14.9" height="19.35" viewBox="0 0 14.9 19.35"><path d="M14.9 10.875c0 .3-.2.6-.4.7-1.9 1.1-10.1 5.9-13.3 7.7-.3.1-.6.1-.8 0-.3-.1-.4-.4-.4-.7v-10.1c0-.3.2-.6.4-.7 1.9-1.1 10.1-5.9 13.3-7.7.3-.1.6-.1.8 0 .3.1.4.4.4.7z" fill="#FF2E93"/></svg></g><g transform="translate(292.0 702.0) rotate(0.0 10.5 10.5) scale(0.7984790874524714 0.7835820895522387)"><svg width="26.3" height="26.8" viewBox="0 0 26.3 26.8"><path d="M26.3 11.75c0 .3-.2.6-.4.8-2.1 1.2-21.3 12.2-24.6 14.1-.3.2-.6.2-.9 0s-.4-.4-.4-.8v-10.8c0-.3.2-.6.4-.8C2.5 13.05 21.7 2.05 25 .15c.3-.2.6-.2.9 0s.4.4.4.8z" fill="#FF2E93"/></svg></g><g transform="translate(68.0 675.0) rotate(0.0 5.0 7.0) scale(0.6711409395973155 0.7235142118863048)"><svg width="14.9" height="19.35" viewBox="0 0 14.9 19.35"><path d="M14.9 10.875c0 .3-.2.6-.4.7-1.9 1.1-10.1 5.9-13.3 7.7-.3.1-.6.1-.8 0-.3-.1-.4-.4-.4-.7v-10.1c0-.3.2-.6.4-.7 1.9-1.1 10.1-5.9 13.3-7.7.3-.1.6-.1.8 0 .3.1.4.4.4.7z" fill="#FF2E93"/></svg></g><g transform="translate(604.0 696.0) rotate(0.0 8.0 8.0) scale(0.6083650190114068 0.5970149253731343)"><svg width="26.3" height="26.8" viewBox="0 0 26.3 26.8"><path d="M26.3 11.75c0 .3-.2.6-.4.8-2.1 1.2-21.3 12.2-24.6 14.1-.3.2-.6.2-.9 0s-.4-.4-.4-.8v-10.8c0-.3.2-.6.4-.8C2.5 13.05 21.7 2.05 25 .15c.3-.2.6-.2.9 0s.4.4.4.8z" fill="#FF2E93"/></svg></g><g transform="translate(612.0 433.0) rotate(0.0 13.5 13.5) scale(1.026615969581749 1.007462686567164)"><svg width="26.3" height="26.8" viewBox="0 0 26.3 26.8"><path d="M26.3 11.75c0 .3-.2.6-.4.8-2.1 1.2-21.3 12.2-24.6 14.1-.3.2-.6.2-.9 0s-.4-.4-.4-.8v-10.8c0-.3.2-.6.4-.8C2.5 13.05 21.7 2.05 25 .15c.3-.2.6-.2.9 0s.4.4.4.8z" fill="#00e6b3"/></svg></g><g transform="translate(687.0 400.0) rotate(0.0 5.0 6.5) scale(0.6711409395973155 0.6718346253229973)"><svg width="14.9" height="19.35" viewBox="0 0 14.9 19.35"><path d="M14.9 10.875c0 .3-.2.6-.4.7-1.9 1.1-10.1 5.9-13.3 7.7-.3.1-.6.1-.8 0-.3-.1-.4-.4-.4-.7v-10.1c0-.3.2-.6.4-.7 1.9-1.1 10.1-5.9 13.3-7.7.3-.1.6-.1.8 0 .3.1.4.4.4.7z" fill="#FF2E93"/></svg></g><g transform="translate(139.0 691.0) rotate(0.0 9.0 12.5) scale(1.2080536912751678 1.2919896640826873)"><svg width="14.9" height="19.35" viewBox="0 0 14.9 19.35"><path d="M14.9 10.875c0 .3-.2.6-.4.7-1.9 1.1-10.1 5.9-13.3 7.7-.3.1-.6.1-.8 0-.3-.1-.4-.4-.4-.7v-10.1c0-.3.2-.6.4-.7 1.9-1.1 10.1-5.9 13.3-7.7.3-.1.6-.1.8 0 .3.1.4.4.4.7z" fill="#FF2E93"/></svg></g></svg>